<?xml version="1.0" encoding="UTF-8"?>
<svg xmlns="http://www.w3.org/2000/svg" xmlns:xlink="http://www.w3.org/1999/xlink" viewBox="0 0 651.55 611.11">
  <defs>
    <clipPath id="clippath">
      <polygon points="95.79 553.96 95.79 553.96 143.67 553.96 143.67 584.27 95.79 584.27 95.79 553.96" style="fill: none;"/>
    </clipPath>
    <clipPath id="clippath-1">
      <polygon points="233.57 553.96 233.57 553.96 185.69 553.96 185.69 584.27 233.57 584.27 233.57 553.96" style="fill: none;"/>
    </clipPath>
  </defs>
  <g id="dog">
    <g id="dogBody">
      <g id="dogTail">
        <path d="M116.78,462.79c-16.72-39.11-86.27-88.58-79.42-102.17,10.44-20.72,92.51,92.76,97.34,100.5l-17.92,1.67Z" style="fill: #ca9e67;"/>
        <path d="M115.52,464.92l-.57-1.34c-8.36-19.56-30.03-41.62-49.14-61.07-21.86-22.25-34.04-35.2-30.22-42.78,1.14-2.25,3.02-3.5,5.45-3.61,21.86-.99,94.71,102.9,95.37,103.96l1.71,2.75-22.6,2.1ZM43.98,360.68c-1.26-.48-2.15-.61-2.77-.58-.97.04-1.58.47-2.06,1.42-2.72,5.39,13.66,22.06,29.5,38.18,18.94,19.27,40.35,41.06,49.38,60.96l13.13-1.22c-5.53-7.96-21.55-29.93-39.26-51.56-29.15-35.62-42.27-45.03-47.92-47.2Z" style="fill: #1d1d1b;"/>
      </g>
      <g>
        <path d="M43.09,555.96h21.61c4.17,0,7.32-3.79,6.56-7.89-6.52-35.56,1.67-23.56,11.23-36.27,8.91-11.84,18.09-15.04,26.55-31.15,8.79-16.72,15.62-45.09,4.09-56.68-18.23-18.32-84.19,3.37-92.94,36.77-5.2,19.84-7.36,41.3,18.89,66.89,7.31,7.13,3.29,10.16-1.65,18.1-2.78,4.46.39,10.24,5.65,10.24Z" style="fill: #ca9e67;"/>
        <path d="M64.7,557.96h-21.61c-3.19,0-6.02-1.67-7.57-4.46-1.56-2.81-1.47-6.11.23-8.84.71-1.15,1.41-2.19,2.06-3.16,3.82-5.75,4.98-7.49-.1-12.44-27.54-26.85-24.47-49.61-19.43-68.83,5.39-20.57,30.48-35.89,52.95-41.95,19.3-5.2,35.5-3.6,43.34,4.28,13.01,13.07,4.61,43.14-3.73,59.02-5.27,10.03-10.89,15.28-16.32,20.35-3.59,3.36-6.99,6.53-10.41,11.07-3.1,4.12-6.06,5.84-8.44,7.23-4.49,2.62-6.74,3.93-2.42,27.48.47,2.54-.22,5.14-1.87,7.13-1.65,1.98-4.08,3.12-6.66,3.12ZM91.96,419.29c-5.91,0-12.61.94-19.71,2.86-20.66,5.57-45.16,20.18-50.12,39.1-4.97,18.97-7.65,39.61,18.35,64.96,7.46,7.27,4.45,11.79.64,17.52-.63.94-1.3,1.95-1.99,3.06-.92,1.48-.97,3.27-.13,4.78.83,1.5,2.36,2.4,4.08,2.4h21.61c1.39,0,2.7-.61,3.59-1.68.89-1.07,1.26-2.47,1.01-3.85-4.63-25.25-2.01-27.96,4.35-31.66,2.18-1.27,4.64-2.7,7.25-6.18,3.63-4.82,7.31-8.26,10.88-11.59,5.42-5.07,10.55-9.85,15.51-19.29,8.15-15.52,15.2-43.52,4.44-54.34-4.01-4.03-11.01-6.09-19.75-6.09Z" style="fill: #1d1d1b;"/>
      </g>
      <g>
        <path d="M286.37,555.96h-21.61c-4.17,0-7.32-3.79-6.56-7.89,6.52-35.56-1.67-23.56-11.23-36.27-8.91-11.84-18.09-15.04-26.55-31.15-8.79-16.72-15.62-45.09-4.09-56.68,18.23-18.32,84.19,3.37,92.94,36.77,5.2,19.84,7.36,41.3-18.89,66.89-7.31,7.13-3.29,10.16,1.65,18.1,2.78,4.46-.39,10.24-5.65,10.24Z" style="fill: #ca9e67;"/>
        <path d="M286.37,557.96h-21.61c-2.58,0-5.01-1.14-6.66-3.12-1.66-1.99-2.34-4.58-1.87-7.13,4.32-23.56,2.07-24.87-2.42-27.48-2.38-1.39-5.34-3.11-8.44-7.23-3.42-4.55-6.82-7.72-10.41-11.07-5.43-5.07-11.04-10.31-16.32-20.35-8.35-15.88-16.74-45.95-3.73-59.02,7.84-7.88,24.04-9.48,43.34-4.28,22.47,6.06,47.56,21.38,52.95,41.95,5.04,19.23,8.11,41.99-19.43,68.83-5.08,4.95-3.93,6.69-.1,12.44.65.97,1.34,2.02,2.06,3.16,1.7,2.73,1.79,6.03.23,8.84-1.55,2.79-4.38,4.46-7.57,4.46ZM237.49,419.29c-8.75,0-15.75,2.06-19.75,6.09-10.77,10.82-3.72,38.82,4.44,54.34,4.96,9.43,10.08,14.22,15.51,19.29,3.56,3.33,7.24,6.77,10.87,11.59,2.61,3.47,5.08,4.91,7.26,6.18,6.36,3.7,8.98,6.41,4.34,31.66-.25,1.37.12,2.78,1.01,3.85.89,1.07,2.2,1.68,3.59,1.68h21.61c1.72,0,3.24-.9,4.08-2.4.84-1.52.79-3.3-.13-4.78-.69-1.11-1.37-2.12-1.99-3.06-3.81-5.73-6.82-10.25.64-17.52,26-25.35,23.33-45.99,18.36-64.96-4.96-18.92-29.45-33.53-50.12-39.1-7.11-1.92-13.81-2.86-19.71-2.86Z" style="fill: #1d1d1b;"/>
      </g>
      <g>
        <path d="M164.7,339.63c-62.34.06-124.54,199.9-83.32,232.67,10.64,8.46,21.2.24,80.19,0,63.2-.26,75.1,9.07,86.46,0,41.32-33.01-20.98-232.74-83.32-232.67Z" style="fill: #ca9e67;"/>
        <path d="M234.83,578.27c-4.05,0-8.92-.48-15.15-1.1-12-1.19-30.14-3-58.11-2.87-25.35.1-42,1.71-53.01,2.78-15.38,1.49-21.75,2.1-28.43-3.21-23.37-18.58-14.6-82.75,3.44-134.51,9.64-27.66,22.2-52.68,35.36-70.45,15.14-20.45,30.97-31.27,45.77-31.28h.03c14.74,0,30.51,10.71,45.6,30.99,13.13,17.63,25.67,42.5,35.33,70.02,9.97,28.42,16.17,57.33,17.46,81.41,1.43,26.83-3.35,45.44-13.84,53.82-4.16,3.32-8.38,4.4-14.44,4.4ZM164.15,570.3c26.72,0,44.23,1.73,55.93,2.89,14.87,1.48,21.02,2.08,26.69-2.45,9.3-7.43,13.68-25.35,12.34-50.48-1.26-23.71-7.39-52.23-17.24-80.3-15.92-45.37-45.67-98.33-77.15-98.33h-.03v-2s0,2,0,2c-31.62.03-61.43,53.38-77.35,99.05-9.76,28-15.81,56.39-17.04,79.96-1.3,24.96,3.07,42.76,12.31,50.1,5.42,4.31,10.9,3.78,25.56,2.36,11.09-1.07,27.84-2.69,53.38-2.8.87,0,1.74,0,2.59,0Z" style="fill: #1d1d1b;"/>
      </g>
      <g>
        <g id="_Mirror_Repeat_" data-name="&amp;lt;Mirror Repeat&amp;gt;">
          <g style="clip-path: url(#clippath);">
            <path d="M97.79,555.97c1.39,10.84,3.71,24.56,16.47,26.16,7.24.94,14.64-2.89,19.29-8.64,4.11-5.07,6.12-11.38,8.12-17.52" style="fill: #c99d65;"/>
            <path d="M116.48,584.27c-.83,0-1.66-.05-2.48-.16-14.87-1.87-16.95-18.16-18.2-27.89-.14-1.1.63-2.1,1.73-2.24,1.1-.15,2.1.63,2.24,1.73,1.49,11.61,3.85,23.06,14.74,24.43,6.1.79,12.96-2.32,17.48-7.92,3.8-4.7,5.77-10.72,7.67-16.55l.11-.33c.34-1.05,1.47-1.62,2.52-1.28,1.05.34,1.62,1.47,1.28,2.52l-.11.33c-2.01,6.17-4.09,12.55-8.36,17.82-4.86,6.02-11.81,9.53-18.62,9.53Z" style="fill: #1d1d1b;"/>
          </g>
        </g>
        <g id="_Mirror_Repeat_-2" data-name="&amp;lt;Mirror Repeat&amp;gt;">
          <g style="clip-path: url(#clippath-1);">
            <path d="M231.57,555.97c-1.39,10.84-3.71,24.56-16.47,26.16-7.24.94-14.64-2.89-19.29-8.64-4.11-5.07-6.12-11.38-8.12-17.52" style="fill: #c99d65;"/>
            <path d="M212.87,584.27c.83,0,1.66-.05,2.48-.16,14.87-1.87,16.95-18.16,18.2-27.89.14-1.1-.63-2.1-1.73-2.24-1.1-.15-2.1.63-2.24,1.73-1.49,11.61-3.85,23.06-14.74,24.43-6.1.79-12.96-2.32-17.48-7.92-3.8-4.7-5.77-10.72-7.67-16.55l-.11-.33c-.34-1.05-1.47-1.62-2.52-1.28-1.05.34-1.62,1.47-1.28,2.52l.11.33c2.01,6.17,4.09,12.55,8.36,17.82,4.86,6.02,11.81,9.53,18.62,9.53Z" style="fill: #1d1d1b;"/>
          </g>
        </g>
      </g>
    </g>
    <g id="Backpack">
      <g>
        <path d="M473.65,313.28v27.23c0,4.41,3.57,7.98,7.98,7.98h50.94c4.41,0,7.98-3.57,7.98-7.98v-27.23c0-4.41-3.57-7.98-7.98-7.98h-50.94c-4.41,0-7.98,3.57-7.98,7.98ZM521.56,342.32h-28.94c-4.41,0-7.98-3.57-7.98-7.98v-8.42c0-4.41,3.57-7.98,7.98-7.98h28.94c4.41,0,7.98,3.57,7.98,7.98v8.42c0,4.41-3.57,7.98-7.98,7.98Z" style="fill: #285b7b;"/>
        <path d="M532.56,350.99h-50.94c-5.78,0-10.48-4.7-10.48-10.48v-27.23c0-5.78,4.7-10.48,10.48-10.48h50.94c5.78,0,10.48,4.7,10.48,10.48v27.23c0,5.78-4.7,10.48-10.48,10.48ZM481.62,307.8c-3.02,0-5.48,2.46-5.48,5.48v27.23c0,3.02,2.46,5.48,5.48,5.48h50.94c3.02,0,5.48-2.46,5.48-5.48v-27.23c0-3.02-2.46-5.48-5.48-5.48h-50.94ZM521.56,344.82h-28.94c-5.78,0-10.48-4.7-10.48-10.48v-8.42c0-5.78,4.7-10.48,10.48-10.48h28.94c5.78,0,10.48,4.7,10.48,10.48v8.42c0,5.78-4.7,10.48-10.48,10.48ZM492.62,320.44c-3.02,0-5.48,2.46-5.48,5.48v8.42c0,3.02,2.46,5.48,5.48,5.48h28.94c3.02,0,5.48-2.46,5.48-5.48v-8.42c0-3.02-2.46-5.48-5.48-5.48h-28.94Z" style="fill: #151328;"/>
      </g>
      <g>
        <path d="M386.93,424.19v164.62c0,8.65,7.01,15.67,15.67,15.67h208.98c8.65,0,15.67-7.01,15.67-15.67v-164.62c-2.06-5.54-5.4-14.68-9.34-26.15-3.45-10.06-5.4-16.17-5.81-17.35-11.96-33.8-192.9-33.99-208.98,0-5.57,11.77-11.53,28.94-11.53,28.94-2.13,6.17-3.69,11.28-4.65,14.56ZM597.64,583.83h-181.09c-8.65,0-15.67-8.9-15.67-19.89v-133.63c0-10.98,7.01-19.89,15.67-38.66h181.09c8.65,18.77,15.67,27.68,15.67,38.66v133.63c0,10.98-7.01,19.89-15.67,19.89Z" style="fill: #285b7b;"/>
        <path d="M611.58,606.98h-208.98c-10.02,0-18.17-8.15-18.17-18.17v-164.98l.1-.35c1.44-4.89,3.02-9.82,4.69-14.67.25-.71,6.06-17.44,11.63-29.2,9.87-20.87,73.87-29.14,129.07-26.32,17.95.91,77.09,5.53,84.53,26.56.13.37.41,1.22.83,2.51.91,2.77,2.6,7.91,4.99,14.87,3.02,8.79,6.16,17.57,9.32,26.09l.16.42v165.07c0,10.02-8.15,18.17-18.17,18.17ZM389.43,424.55v164.26c0,7.26,5.91,13.17,13.17,13.17h208.98c7.26,0,13.17-5.91,13.17-13.17v-164.17c-3.13-8.43-6.22-17.1-9.21-25.79-2.4-6.99-4.1-12.15-5.01-14.93-.41-1.24-.67-2.05-.8-2.4-4.19-11.85-35.62-20.97-80.07-23.23-53.15-2.71-115.79,5.49-124.29,23.47-5.45,11.51-11.36,28.52-11.42,28.69-1.61,4.65-3.12,9.4-4.52,14.1ZM597.64,586.33h-181.09c-10.02,0-18.17-10.04-18.17-22.39v-133.63c0-8.3,3.68-15.43,8.76-25.29,2.14-4.15,4.57-8.85,7.13-14.42l.67-1.45h184.29l.67,1.45c2.57,5.57,4.99,10.27,7.13,14.42,5.09,9.86,8.76,16.98,8.76,25.29v133.63c0,12.34-8.15,22.39-18.17,22.39ZM418.14,394.16c-2.36,5.03-4.58,9.33-6.56,13.17-4.94,9.58-8.21,15.9-8.21,22.99v133.63c0,9.59,5.91,17.39,13.17,17.39h181.09c7.26,0,13.17-7.8,13.17-17.39v-133.63c0-7.09-3.26-13.42-8.21-22.99-1.98-3.83-4.2-8.13-6.56-13.17h-177.9Z" style="fill: #151328;"/>
      </g>
      <g>
        <path d="M534.81,608.6h-55.44c-56.74,0-68.79,0-68.79-68.79v-138.14c0-37.99,30.8-68.79,68.79-68.79h55.44c37.99,0,68.79,30.8,68.79,68.79v138.14q0,68.79-68.79,68.79Z" style="fill: #9dcef0;"/>
        <path d="M534.81,611.11h-55.44c-28.99,0-46.49,0-57.29-9.19-10.33-8.79-14-25.04-14-62.1v-138.14c0-39.31,31.98-71.29,71.29-71.29h55.44c39.31,0,71.29,31.98,71.29,71.29v138.14c0,35.04,0,52.63-9.33,61.96s-26.92,9.33-61.96,9.33ZM479.37,335.38c-36.55,0-66.29,29.74-66.29,66.29v138.14c0,34.9,3.32,50.7,12.24,58.29,9.41,8,26.21,8,54.05,8h55.44c33.66,0,50.56,0,58.42-7.87,7.87-7.87,7.87-24.76,7.87-58.42v-138.14c0-36.55-29.74-66.29-66.29-66.29h-55.44Z" style="fill: #151328;"/>
      </g>
      <g>
        <rect x="427.69" y="488.23" width="158.81" height="106.27" rx="34.21" ry="34.21" style="fill: #9dcef1;"/>
        <path d="M552.28,597h-90.38c-20.24,0-36.71-16.47-36.71-36.71v-37.84c0-20.24,16.47-36.71,36.71-36.71h90.38c20.24,0,36.71,16.47,36.71,36.71v37.84c0,20.24-16.47,36.71-36.71,36.71ZM461.9,490.73c-17.49,0-31.71,14.23-31.71,31.71v37.84c0,17.49,14.23,31.71,31.71,31.71h90.38c17.49,0,31.71-14.23,31.71-31.71v-37.84c0-17.49-14.23-31.71-31.71-31.71h-90.38Z" style="fill: #151328;"/>
      </g>
      <rect x="427.69" y="520.15" width="158.81" height="5" style="fill: #151328;"/>
      <path d="M457.7,543.86c-1.38,0-2.5-1.12-2.5-2.5v-17.82c0-1.38,1.12-2.5,2.5-2.5s2.5,1.12,2.5,2.5v17.82c0,1.38-1.12,2.5-2.5,2.5Z" style="fill: #151328;"/>
      <g>
        <circle cx="507.09" cy="427.4" r="12.13" style="fill: #c99d65;"/>
        <path d="M507.09,442.03c-8.07,0-14.63-6.56-14.63-14.63s6.56-14.63,14.63-14.63,14.63,6.56,14.63,14.63-6.56,14.63-14.63,14.63ZM507.09,417.77c-5.31,0-9.63,4.32-9.63,9.63s4.32,9.63,9.63,9.63,9.63-4.32,9.63-9.63-4.32-9.63-9.63-9.63Z" style="fill: #151328;"/>
      </g>
      <g>
        <circle cx="488.17" cy="408.48" r="6.79" style="fill: #c99d65;"/>
        <path d="M488.18,417.77c-5.12,0-9.29-4.17-9.29-9.29s4.17-9.29,9.29-9.29,9.29,4.17,9.29,9.29-4.17,9.29-9.29,9.29ZM488.18,404.19c-2.37,0-4.29,1.92-4.29,4.29s1.92,4.29,4.29,4.29,4.29-1.92,4.29-4.29-1.92-4.29-4.29-4.29Z" style="fill: #151328;"/>
      </g>
      <g>
        <circle cx="507.09" cy="401.69" r="6.79" style="fill: #c99d65;"/>
        <path d="M507.09,410.98c-5.12,0-9.29-4.17-9.29-9.29s4.17-9.29,9.29-9.29,9.29,4.17,9.29,9.29-4.17,9.29-9.29,9.29ZM507.09,397.4c-2.37,0-4.29,1.92-4.29,4.29s1.92,4.29,4.29,4.29,4.29-1.92,4.29-4.29-1.92-4.29-4.29-4.29Z" style="fill: #151328;"/>
      </g>
      <g>
        <circle cx="526.01" cy="408.48" r="6.79" style="fill: #c99d65;"/>
        <path d="M526.01,417.77c-5.12,0-9.29-4.17-9.29-9.29s4.17-9.29,9.29-9.29,9.29,4.17,9.29,9.29-4.17,9.29-9.29,9.29ZM526.01,404.19c-2.37,0-4.29,1.92-4.29,4.29s1.92,4.29,4.29,4.29,4.29-1.92,4.29-4.29-1.92-4.29-4.29-4.29Z" style="fill: #151328;"/>
      </g>
    </g>
    <g>
      <path d="M127.3,349.06v73.47h74.85v-73.71c-24.95.08-49.9.16-74.85.24Z" style="fill: #fff;"/>
      <path d="M202.15,424.53h-74.85c-1.1,0-2-.9-2-2v-73.47c0-1.1.89-2,1.99-2l74.85-.24h0c.53,0,1.04.21,1.41.58.38.38.59.88.59,1.42v73.71c0,1.1-.9,2-2,2ZM129.3,420.53h70.85v-69.71l-70.85.23v69.48Z" style="fill: #1d1d1b;"/>
    </g>
    <g>
      <rect x="138.12" y="396.64" width="53.28" height="3" style="fill: #1d1d1c;"/>
      <rect x="138.12" y="404.08" width="18.89" height="3" style="fill: #1d1d1c;"/>
      <rect x="138.12" y="410.51" width="47.81" height="3" style="fill: #1d1d1c;"/>
      <rect x="138.12" y="388.43" width="43.58" height="3" style="fill: #1d1d1c;"/>
      <rect x="138.04" y="380.38" width="53.28" height="3" style="fill: #1d1d1c;"/>
    </g>
    <g>
      <path d="M127.3,373.59v-24.77h52.47v15.67c-.92,5.62.48,13.62-7.73,15.62-2.56.62-4.94-1.2-7.21-2.24-4.68-2.52-8.27.76-8.31,5.78-.09,4.6,1.53,9.76-1.14,13.98-1.87,2.96-8.33,3.49-10.63-.96-1.96-3.82.57-8.91-.63-13.12-2.19-8.35-9.07-10.27-16.87-8.47-.19.04.04-1.49.04-1.49Z" style="fill: #9dcef1;"/>
      <path d="M150.42,401.93c-.14,0-.28,0-.42,0-3.07-.14-5.69-1.76-7.02-4.34-1.35-2.61-1.04-5.44-.74-8.16.21-1.95.41-3.79-.03-5.33-2.13-8.12-9.06-8.33-14.5-7.07l-1.04.24-.81-.73c-.81-.76-.76-1.77-.56-3.09v-26.61h56.47l-.03,18c-.17,1.03-.26,2.18-.35,3.4-.38,5.02-.9,11.9-8.88,13.84-2.73.66-5.16-.62-7.1-1.65-.48-.25-.95-.5-1.42-.72l-.11-.06c-.94-.51-2.32-.97-3.48-.28-1.15.68-1.87,2.33-1.88,4.31-.02,1.22.08,2.49.19,3.83.3,3.57.63,7.61-1.64,11.2-1.26,1.99-3.84,3.23-6.65,3.23ZM132.37,372.45c7.01,0,11.88,3.69,13.7,10.59.64,2.25.39,4.57.15,6.81-.24,2.24-.47,4.35.32,5.9.92,1.79,2.68,2.13,3.64,2.17,1.51.07,2.98-.51,3.52-1.36,1.55-2.46,1.3-5.51,1.03-8.73-.11-1.38-.23-2.81-.21-4.21.02-3.4,1.46-6.29,3.84-7.7,2.15-1.27,4.76-1.21,7.36.17.51.24,1.03.51,1.56.79,1.56.82,3.03,1.6,4.29,1.3,4.81-1.17,5.41-4.65,5.84-10.25.09-1.19.18-2.42.36-3.58v-13.51h-48.47v21.84c1.06-.15,2.08-.22,3.06-.22Z" style="fill: #1d1d1b;"/>
    </g>
    <g id="dogHead">
      <g>
        <path d="M221.45,337.29s38.42,27.14,57.43-7.26c19.01-34.41-30.86-137.96-30.86-137.96H81.38s-49.87,103.55-30.86,137.96c19.01,34.41,57.43,7.26,57.43,7.26h113.51Z" style="fill: #7d5c33;"/>
        <path d="M78.08,349.47c-2.52,0-5.08-.25-7.62-.84-9.08-2.08-16.37-8.01-21.69-17.63-19.29-34.91,28.75-135.53,30.81-139.79l.54-1.13h169.16l.54,1.13c2.05,4.27,50.1,104.89,30.81,139.79-5.32,9.62-12.61,15.55-21.69,17.63-17.11,3.92-34.77-7.11-38.11-9.34h-112.27c-2.84,1.9-16.06,10.17-30.49,10.18ZM107.95,335.29h114.14l.52.37c.16.11,14.1,9.8,28.8,9.8,2.22,0,4.45-.22,6.66-.73,7.91-1.82,14.33-7.09,19.07-15.67,17.25-31.22-25.07-123.67-30.38-134.99H82.64c-5.31,11.32-47.63,103.77-30.38,134.99,4.74,8.58,11.15,13.85,19.07,15.67,16.83,3.87,35.28-8.94,35.46-9.07l.52-.36h.63Z" style="fill: #1d1d1b;"/>
      </g>
      <g>
        <path d="M248.02,192.34c0,2.26-5.15,25.6-7.2,33.93-16.33,66.13-19.5,113.36-19.5,113.36,0,15.63-12.67,28.29-28.29,28.29s-28.29-12.67-28.29-28.29c0,15.63-12.67,28.29-28.3,28.29s-28.29-12.67-28.29-28.29c0,0-3.41-45.61-20.97-113.36,0,0-5.79-31.02-5.79-34.21,0-46.01,37.35-83.03,83.35-83.03s83.3,37.29,83.3,83.3Z" style="fill: #c99d66;"/>
        <path d="M193.02,369.92c-12.89,0-23.93-8.09-28.29-19.47-4.37,11.37-15.41,19.47-28.3,19.47-16.68,0-30.25-13.55-30.29-30.21-.16-2.07-3.91-47.39-20.91-112.93l-.06-.32c-1.74-9.39-5.79-31.47-5.79-34.39,0-46.88,38.29-85.03,85.35-85.03s85.3,38.27,85.3,85.3c0,2.7-5.54,27.42-7.26,34.41-15.82,64.07-19.3,110.94-19.45,112.95-.04,16.67-13.61,30.22-30.29,30.22ZM166.73,339.63c0,14.5,11.8,26.29,26.29,26.29s26.29-11.79,26.29-26.29v-.13c.04-.47,3.38-48.16,19.56-113.7,2.21-8.94,7.1-31.31,7.15-33.46,0-44.83-36.47-81.3-81.3-81.3s-81.35,36.35-81.35,81.03c0,1.98,2.88,18.35,5.72,33.69,0,.03,0,.05.01.08,17.4,67.11,20.98,113.19,21.02,113.65v.15c0,14.5,11.8,26.29,26.3,26.29s26.3-11.79,26.3-26.29h4Z" style="fill: #1d1d1b;"/>
      </g>
      <g>
        <path d="M173.35,272.8c1.78,0,3.47.85,4.46,2.32.83,1.23,1.3,2.7,1.3,4.24v4.75c0,4.65-2.48,8.94-6.51,11.27l-1.39.8c-4.03,2.32-8.99,2.32-13.01,0l-1.39-.8c-4.03-2.32-6.51-6.62-6.51-11.27v-4.75c0-1.54.47-3.01,1.3-4.24.99-1.47,2.68-2.32,4.46-2.32h17.29Z"/>
        <path d="M164.7,299.91c-2.6,0-5.19-.67-7.51-2l-1.39-.8c-4.63-2.67-7.51-7.65-7.51-13v-4.75c0-1.92.57-3.77,1.64-5.36,1.35-2.01,3.64-3.2,6.12-3.2h17.29c2.48,0,4.76,1.2,6.12,3.2,1.07,1.59,1.64,3.44,1.64,5.36v4.75c0,5.35-2.88,10.33-7.51,13l-1.39.8c-2.31,1.34-4.91,2-7.51,2ZM156.05,274.8c-1.15,0-2.19.54-2.8,1.44-.62.92-.95,2-.95,3.12v4.75c0,3.92,2.11,7.58,5.51,9.54l1.39.8c3.4,1.96,7.62,1.96,11.01,0l1.39-.8c3.4-1.96,5.51-5.61,5.51-9.54v-4.75c0-1.12-.33-2.19-.95-3.12-.61-.9-1.66-1.44-2.8-1.44h-17.29Z" style="fill: #1d1d1b;"/>
      </g>
      <rect x="162.71" y="297.92" width="4" height="41.71" style="fill: #1d1d1b;"/>
      <circle cx="127.3" cy="238.48" r="10.41"/>
      <circle cx="202.15" cy="238.48" r="10.41"/>
    </g>
    <g>
      <path d="M374.43,590.03c0,7.62-6.18,13.79-13.79,13.79s-13.79-6.17-13.79-13.79h-43.4v.04c0,7.61-6.17,13.79-13.79,13.79s-13.79-6.18-13.79-13.79c0-4.98,2.64-9.34,6.59-11.76-3.95-2.42-6.59-6.78-6.59-11.75,0-7.62,6.18-13.79,13.79-13.79s13.79,6.17,13.79,13.79h43.4v-.04c0-7.62,6.18-13.79,13.79-13.79s13.79,6.17,13.79,13.79c0,4.97-2.63,9.33-6.58,11.76,3.95,2.42,6.58,6.78,6.58,11.75Z" style="fill: #fff;"/>
      <path d="M289.66,605.86c-8.71,0-15.79-7.08-15.79-15.79,0-4.57,1.92-8.8,5.25-11.76-3.33-2.96-5.25-7.19-5.25-11.75,0-8.71,7.08-15.79,15.79-15.79,8.03,0,14.68,6.02,15.66,13.79h39.65c.98-7.8,7.63-13.83,15.67-13.83,8.71,0,15.79,7.08,15.79,15.79,0,4.56-1.92,8.79-5.24,11.76,3.32,2.96,5.24,7.19,5.24,11.75,0,8.71-7.08,15.79-15.79,15.79-8.03,0-14.68-6.02-15.66-13.79h-39.65c-.98,7.8-7.63,13.83-15.67,13.83ZM289.66,554.77c-6.5,0-11.79,5.29-11.79,11.79,0,4.13,2.11,7.88,5.64,10.04l2.78,1.71-2.78,1.71c-3.53,2.16-5.64,5.92-5.64,10.06,0,6.5,5.29,11.79,11.79,11.79s11.79-5.29,11.79-11.79v-2l2-.04h45.4v2c0,6.5,5.29,11.79,11.79,11.79s11.79-5.29,11.79-11.79c0-4.13-2.1-7.89-5.62-10.04l-2.78-1.7,2.77-1.71c3.52-2.17,5.63-5.93,5.63-10.06,0-6.5-5.29-11.79-11.79-11.79s-11.79,5.29-11.79,11.79v2l-2,.04h-45.4v-2c0-6.5-5.29-11.79-11.79-11.79Z" style="fill: #1d1d1c;"/>
    </g>
  </g>
  <g id="hotspots">
    <circle id="papirHotspot" cx="237.6" cy="385.68" r="30.44" style="fill: #e30613;"/>
    <circle id="emailHotspot" cx="556.45" cy="269.76" r="30.44" style="fill: #e30613;"/>
    <circle id="benHotspot" cx="330.63" cy="530.29" r="30.44" style="fill: #e30613;"/>
  </g>
</svg>