<svg width="500" height="500" xmlns="http://www.w3.org/2000/svg" xmlns:xlink="http://www.w3.org/1999/xlink" version="1.1" baseProfile="full" viewBox="0 0 500 500">
<rect width="500" height="500" x="0" y="0" fill="url(#zr0-g0)"></rect>
<path d="M250 100A150 150 0 0 1 379.9038 325L250 250Z" fill="url(#zr0-g1)" stroke="#cccccc" stroke-linejoin="round" class="zr0-cls-0"></path>
<path d="M379.9038 325A150 150 0 0 1 250 400L250 250Z" fill="url(#zr0-g2)" stroke="#cccccc" stroke-linejoin="round" class="zr0-cls-0"></path>
<path d="M250 400A150 150 0 0 1 120.0962 325L250 250Z" fill="url(#zr0-g3)" stroke="#cccccc" stroke-linejoin="round" class="zr0-cls-0"></path>
<path d="M120.0962 325A150 150 0 0 1 153.5819 135.0933L250 250Z" fill="url(#zr0-g4)" stroke="#cccccc" stroke-linejoin="round" class="zr0-cls-0"></path>
<path d="M153.5819 135.0933A150 150 0 0 1 250 100L250 250Z" fill="url(#zr0-g5)" stroke="#cccccc" stroke-linejoin="round" class="zr0-cls-0"></path>
<path d="M-5 -5l365.8896 0l0 50l-365.8896 0Z" transform="translate(72.0552 433)" fill="rgb(0,0,0)" fill-opacity="0" stroke="#b7b9be" stroke-width="0" class="zr0-cls-1"></path>
<path d="M3.5 0L21.5 0A3.5 3.5 0 0 1 25 3.5L25 10.5A3.5 3.5 0 0 1 21.5 14L3.5 14A3.5 3.5 0 0 1 0 10.5L0 3.5A3.5 3.5 0 0 1 3.5 0" transform="translate(73.0552 434)" fill="url(#zr0-g1)" stroke="#cccccc" stroke-width="2" stroke-linecap="butt" stroke-miterlimit="10" stroke-linejoin="round" class="zr0-cls-1"></path>
<text dominant-baseline="central" text-anchor="start" style="font-size:14px;font-family:Microsoft YaHei;" xml:space="preserve" x="34" y="7" transform="translate(73.0552 434)" fill="black">Tror ikke på dig</text>
<path d="M-1 -1l138.4619 0l0 16l-138.4619 0Z" transform="translate(73.0552 434)" fill="none" class="zr0-cls-1"></path>
<path d="M3.5 0L21.5 0A3.5 3.5 0 0 1 25 3.5L25 10.5A3.5 3.5 0 0 1 21.5 14L3.5 14A3.5 3.5 0 0 1 0 10.5L0 3.5A3.5 3.5 0 0 1 3.5 0" transform="translate(219.5171 434)" fill="url(#zr0-g2)" stroke="#cccccc" stroke-width="2" stroke-linecap="butt" stroke-miterlimit="10" stroke-linejoin="round" class="zr0-cls-1"></path>
<text dominant-baseline="central" text-anchor="start" style="font-size:14px;font-family:Microsoft YaHei;" x="34" y="7" transform="translate(219.5171 434)" fill="black">Sympati</text>
<path d="M-1 -1l88.6826 0l0 16l-88.6826 0Z" transform="translate(219.5171 434)" fill="none" class="zr0-cls-1"></path>
<path d="M3.5 0L21.5 0A3.5 3.5 0 0 1 25 3.5L25 10.5A3.5 3.5 0 0 1 21.5 14L3.5 14A3.5 3.5 0 0 1 0 10.5L0 3.5A3.5 3.5 0 0 1 3.5 0" transform="translate(316.1997 434)" fill="url(#zr0-g3)" stroke="#cccccc" stroke-width="2" stroke-linecap="butt" stroke-miterlimit="10" stroke-linejoin="round" class="zr0-cls-1"></path>
<text dominant-baseline="central" text-anchor="start" style="font-size:14px;font-family:Microsoft YaHei;" xml:space="preserve" x="34" y="7" transform="translate(316.1997 434)" fill="black">Flere lektier</text>
<path d="M-1 -1l112.7451 0l0 16l-112.7451 0Z" transform="translate(316.1997 434)" fill="none" class="zr0-cls-1"></path>
<path d="M3.5 0L21.5 0A3.5 3.5 0 0 1 25 3.5L25 10.5A3.5 3.5 0 0 1 21.5 14L3.5 14A3.5 3.5 0 0 1 0 10.5L0 3.5A3.5 3.5 0 0 1 3.5 0" transform="translate(73.0552 458)" fill="url(#zr0-g4)" stroke="#cccccc" stroke-width="2" stroke-linecap="butt" stroke-miterlimit="10" stroke-linejoin="round" class="zr0-cls-1"></path>
<text dominant-baseline="central" text-anchor="start" style="font-size:14px;font-family:Microsoft YaHei;" xml:space="preserve" x="34" y="7" transform="translate(73.0552 458)" fill="black">Ekstra tid</text>
<path d="M-1 -1l97.1387 0l0 16l-97.1387 0Z" transform="translate(73.0552 458)" fill="none" class="zr0-cls-1"></path>
<path d="M3.5 0L21.5 0A3.5 3.5 0 0 1 25 3.5L25 10.5A3.5 3.5 0 0 1 21.5 14L3.5 14A3.5 3.5 0 0 1 0 10.5L0 3.5A3.5 3.5 0 0 1 3.5 0" transform="translate(178.1938 458)" fill="url(#zr0-g5)" stroke="#cccccc" stroke-width="2" stroke-linecap="butt" stroke-miterlimit="10" stroke-linejoin="round" class="zr0-cls-1"></path>
<text dominant-baseline="central" text-anchor="start" style="font-size:14px;font-family:Microsoft YaHei;" xml:space="preserve" x="34" y="7" transform="translate(178.1938 458)" fill="black">Vil have billede</text>
<path d="M-1 -1l136.7256 0l0 16l-136.7256 0Z" transform="translate(178.1938 458)" fill="none" class="zr0-cls-1"></path>
<path d="M-182.4585 -5l364.917 0l0 55l-364.917 0Z" transform="translate(250 8)" fill="rgb(0,0,0)" fill-opacity="0" stroke="#3c3c41" stroke-width="0" class="zr0-cls-1"></path>
<path d="M-5 -5l10 0l0 10l-10 0Z" transform="translate(490 483)" fill="rgb(0,0,0)" fill-opacity="0" stroke="#3c3c41" stroke-width="0" class="zr0-cls-1"></path>
<text dominant-baseline="central" text-anchor="middle" style="font-size:20px;font-family:Microsoft YaHei;font-weight:bold italic;" xml:space="preserve" y="10" transform="translate(250 8)" fill="black">Lærer response</text>
<text dominant-baseline="central" text-anchor="middle" style="font-size:15px;font-family:Microsoft YaHei;font-weight:bold italic;" xml:space="preserve" y="37.5" transform="translate(250 8)" fill="black">Individuelle læreres mest almindelige response</text>
<defs >
<radialGradient gradientUnits="objectBoundingBox" cx="0.5" cy="0.5" r="1" id="zr0-g0">
<stop offset="0%" stop-color="#ffffff"></stop>
<stop offset="100%" stop-color="#ffffff"></stop>
</radialGradient>
<linearGradient gradientUnits="objectBoundingBox" x1="0" y1="0" x2="0" y2="1" id="zr0-g1">
<stop offset="0%" stop-color="rgb(81,124,239)"></stop>
<stop offset="100%" stop-color="rgb(81,124,239)"></stop>
</linearGradient>
<linearGradient gradientUnits="objectBoundingBox" x1="0" y1="0" x2="0" y2="1" id="zr0-g2">
<stop offset="0%" stop-color="rgb(50,205,50)"></stop>
<stop offset="100%" stop-color="rgb(50,205,50)"></stop>
</linearGradient>
<linearGradient gradientUnits="objectBoundingBox" x1="0" y1="0" x2="0" y2="1" id="zr0-g3">
<stop offset="0%" stop-color="rgb(220,20,60)"></stop>
<stop offset="100%" stop-color="rgb(220,20,60)"></stop>
</linearGradient>
<linearGradient gradientUnits="objectBoundingBox" x1="0" y1="0" x2="0" y2="1" id="zr0-g4">
<stop offset="0%" stop-color="rgb(186,85,211)"></stop>
<stop offset="100%" stop-color="rgb(186,85,211)"></stop>
</linearGradient>
<linearGradient gradientUnits="objectBoundingBox" x1="0" y1="0" x2="0" y2="1" id="zr0-g5">
<stop offset="0%" stop-color="rgb(255,150,10)"></stop>
<stop offset="100%" stop-color="rgb(255,150,10)"></stop>
</linearGradient>
</defs>
<style ><![CDATA[
.zr0-cls-0:hover {
cursor:pointer;
fill:inherit;
}
.zr0-cls-1:hover {
pointer-events:none;
}

]]>

</style>
</svg>