<?xml version="1.0" encoding="UTF-8"?>
<svg id="Layer_2" data-name="Layer 2" xmlns="http://www.w3.org/2000/svg" viewBox="0 0 180.86 35.95">
  <g>
    <path d="M14.3,35.9L20.59,1.78l15.17-1.3c-.22.7-.42,1.42-.58,2.16-.16.61-.31,1.24-.46,1.9-.14.66-.26,1.24-.36,1.75-.42.03-1.01.06-1.78.07-.77.02-1.55.03-2.35.05-.8.02-1.49.02-2.06.02h-.91l-1.68,8.59,2.78-.14c.35-.03.71-.05,1.08-.05h2.04c.29,0,.51-.02.67-.05-.06.45-.12.89-.17,1.32s-.1.87-.17,1.32l-.43,2.64c-.16.03-.37.05-.62.05h-.91c-.35.03-.72.05-1.1.05s-.75.02-1.1.05c-.42.03-.85.05-1.3.05s-.93.02-1.44.05l-1.63,8.83,7.01-1.1-.48,5.47-15.5,2.4Z"/>
    <path d="M30.62,35.9c.48-2.24.94-4.45,1.39-6.62.45-2.18.88-4.32,1.3-6.43.67-3.81,1.33-7.58,1.97-11.3.64-3.73,1.1-7.29,1.39-10.68l2.5.14c.45.03.89.06,1.32.1.43.03.86.06,1.27.1.48.03.96.06,1.44.07.48.02.96.02,1.44.02-.06.26-.17.77-.31,1.54s-.29,1.54-.43,2.33c-.14.78-.25,1.32-.31,1.61l-.86,4.75.29-.05c.93-1.44,2-3.1,3.22-4.99,1.22-1.89,2.35-3.7,3.41-5.42,1.6-.13,3.2-.27,4.8-.43,1.6-.16,3.2-.37,4.8-.62-.74.99-1.47,1.98-2.21,2.98-.74.99-1.46,1.98-2.16,2.98-.74,1.02-1.54,2.14-2.4,3.36-.86,1.22-1.69,2.41-2.47,3.58-.78,1.17-1.43,2.17-1.94,3,.35,1.6.74,3.18,1.15,4.75.42,1.57.86,3.1,1.34,4.61.48,1.5.96,3.02,1.44,4.56.48,1.54.98,3.09,1.49,4.66-.74-.03-1.49-.06-2.26-.07-.77-.02-1.52-.02-2.26-.02-.93,0-1.82,0-2.69.02-.86.02-1.76.04-2.69.07-.13-1.02-.27-2.09-.43-3.19-.16-1.1-.32-2.23-.48-3.38-.16-1.12-.32-2.23-.48-3.34-.16-1.1-.32-2.17-.48-3.19l-.86,1.01c-.22.93-.46,2.11-.72,3.55-.13.7-.26,1.4-.41,2.09-.14.69-.28,1.35-.41,1.99-.13.77-.27,1.54-.43,2.33-.16.78-.32,1.59-.48,2.42l-7.78,1.15Z"/>
    <path d="M56.78,35.9c.35-1.76.71-3.51,1.08-5.26.37-1.74.71-3.46,1.03-5.16,1.22-6.08,2.21-11.9,2.98-17.47-.35-.06-.72-.1-1.1-.12-.38-.02-.75,0-1.1.02-.77.06-1.52-.03-2.26-.29.03-.26.05-.54.05-.84v-1.97c0-.34.02-.66.05-.98.03-.35.05-.73.05-1.13s.02-.81.05-1.22c.83.06,1.66.11,2.5.14.83.03,1.66.05,2.5.05,2.37,0,4.63-.08,6.79-.24,2.16-.16,4.15-.35,5.98-.58l-.53,2.59-.43,2.26c-.16.83-.3,1.49-.43,1.97-.35.1-.7.18-1.06.24-.35.06-.7.11-1.06.14-.35.03-.71.08-1.08.14-.37.06-.73.13-1.08.19-.48,2.37-.87,4.42-1.18,6.14s-.58,3.38-.82,4.97c-.24,1.58-.52,3.32-.84,5.21-.54,3.23-1.02,6.51-1.44,9.84l-8.64,1.34Z"/>
    <path d="M70.08,35.81c.45-1.86.9-3.96,1.34-6.31s.9-4.79,1.34-7.32c.45-2.53.86-4.96,1.25-7.3.35-2.05.7-4.13,1.03-6.24.34-2.11.66-4.24.98-6.38l7.49-1.2-2.16,12.62c-.48,2.98-.9,5.65-1.27,8.02-.37,2.37-.72,4.61-1.06,6.72s-.68,4.27-1.03,6.48c-.61,0-1.34.04-2.21.12-.86.08-1.73.18-2.59.29-.86.11-1.59.22-2.18.31-.59.1-.9.16-.94.19Z"/>
    <path d="M79.92,35.9L86.21,1.78l15.17-1.3c-.22.7-.42,1.42-.58,2.16-.16.61-.31,1.24-.46,1.9-.14.66-.26,1.24-.36,1.75-.42.03-1.01.06-1.78.07-.77.02-1.55.03-2.35.05-.8.02-1.49.02-2.06.02h-.91l-1.68,8.59,2.78-.14c.35-.03.71-.05,1.08-.05h2.04c.29,0,.51-.02.67-.05-.06.45-.12.89-.17,1.32s-.1.87-.17,1.32l-.43,2.64c-.16.03-.37.05-.62.05h-.91c-.35.03-.72.05-1.1.05s-.75.02-1.1.05c-.42.03-.85.05-1.3.05s-.93.02-1.44.05l-1.63,8.83,7.01-1.1-.48,5.47-15.5,2.4Z"/>
    <path d="M96.28,35.95c.93-4.48,1.79-8.85,2.59-13.1.45-2.59.9-5.22,1.37-7.87.46-2.66.89-5.2,1.27-7.63.38-2.43.67-4.61.86-6.53.86.03,1.58.07,2.14.12.56.05,1.09.09,1.58.12.5.03,1.06.06,1.68.07.62.02,1.42.02,2.38.02-.54,2.27-1.08,4.54-1.61,6.82-.53,2.27-1.02,4.56-1.46,6.86l4.75-.53c.22-1.12.44-2.23.65-3.34s.39-2.2.55-3.29c.16-1.06.36-2.14.6-3.24.24-1.1.5-2.22.79-3.34,1.15-.19,2.32-.34,3.5-.46,1.18-.11,2.58-.22,4.18-.31-.42,1.28-.83,2.78-1.25,4.51s-.82,3.55-1.2,5.47-.75,3.83-1.1,5.74c-.35,1.9-.67,3.67-.96,5.3-.35,2.05-.69,4.1-1.01,6.17-.32,2.06-.64,4.17-.96,6.31l-7.49.86c.22-.96.42-1.91.6-2.86s.34-1.86.5-2.76c.32-1.54.65-3.14.98-4.8.34-1.66.6-3.09.79-4.27l-4.66.43c-.13.61-.25,1.26-.36,1.97-.11.7-.25,1.46-.41,2.26-.16.8-.31,1.58-.46,2.33-.14.75-.28,1.5-.41,2.23-.16.86-.34,1.73-.53,2.59-.19.86-.37,1.73-.53,2.59l-7.39,1.54Z"/>
    <path d="M129.5,35.76c.06-.54.13-1.07.19-1.58.06-.51.13-1.02.19-1.54l.29-2.69c.03-.45.06-.86.1-1.25.03-.38.06-.74.1-1.06h-4.18l-1.92,6.91c-.7.1-1.54.2-2.5.31-.96.11-1.86.22-2.69.31-.51.06-1.02.13-1.51.19-.5.06-1,.13-1.51.19l3.79-12.58c.45-1.5.96-3.22,1.54-5.14s1.16-3.89,1.75-5.9c.59-2.02,1.15-3.91,1.68-5.69.53-1.78.95-3.27,1.27-4.49,2.18-.16,4.39-.35,6.65-.58,2.26-.22,4.46-.53,6.6-.91-.16,1.79-.31,3.82-.46,6.07-.14,2.26-.27,4.58-.38,6.98-.11,2.4-.23,4.77-.36,7.1-.06,2.21-.14,4.49-.24,6.84s-.19,4.76-.29,7.22c-.48.06-.96.13-1.44.19-.48.06-.96.13-1.44.19-.8.13-1.68.27-2.64.43s-1.82.3-2.59.43ZM127.34,22.85c.19,0,.55-.02,1.08-.05.53-.03,1.03-.06,1.51-.1.48-.03.77-.05.86-.05,0-.42.06-1.26.19-2.54.13-1.28.26-2.62.38-4.03.06-.83.14-1.69.22-2.57.08-.88.17-1.78.26-2.71l.29-4.18-.72.05-1.1,4.13-2.98,12.05Z"/>
    <path d="M137.71,35.9c.96-4.32,1.87-8.54,2.74-12.67.35-1.66.71-3.45,1.08-5.35.37-1.9.74-3.83,1.13-5.78.38-1.95.74-3.8,1.06-5.54.32-1.74.58-3.27.77-4.58,1.28-.38,2.66-.74,4.15-1.06,1.49-.32,2.82-.48,4.01-.48,1.92,0,3.44.41,4.56,1.22,1.12.82,1.92,1.91,2.4,3.29.48,1.38.72,2.88.72,4.51,0,1.79-.33,3.51-.98,5.16-.66,1.65-1.54,3.13-2.64,4.44-1.1,1.31-2.37,2.35-3.79,3.12s-2.9,1.15-4.44,1.15h-.53c-.26,1.09-.5,2.27-.72,3.55-.22,1.28-.42,2.46-.58,3.55-.13.64-.24,1.28-.34,1.92-.1.64-.19,1.28-.29,1.92l-8.3,1.63ZM148.89,18.29c.74-.19,1.47-.68,2.21-1.46.74-.78,1.34-1.78,1.82-3,.48-1.22.72-2.54.72-3.98,0-1.18-.26-2.08-.79-2.69-.53-.61-1.11-.91-1.75-.91-.35,2.11-.7,4.11-1.06,6-.35,1.89-.74,3.9-1.15,6.05Z"/>
  </g>
  <path d="M13.68,31.27c-.1-.82-.16-1.59-.19-2.33-.71,0-1.51,0-2.42.02-.91.02-1.77.06-2.57.12.22-1.57.53-3.36.91-5.38.38-2.02.81-4.1,1.27-6.26.46-2.16.92-4.18,1.37-6.07L14.54.53,6.14,1.63c-.45,2.18-.88,4.34-1.3,6.48,0,.03-.01.07-.02.1.71.94,1.05,2.15.84,3.39-.15.87-.54,1.62-1.09,2.23,1.47.92,2.33,2.67,2.02,4.49-.26,1.56-1.32,2.78-2.68,3.35,1.1.98,1.7,2.48,1.44,4.04-.34,2.04-2.03,3.5-3.99,3.66.66.92.96,2.1.76,3.3-.22,1.33-1.02,2.4-2.09,3.04-.01.08-.02.16-.04.24,1.18-.38,2.52-.7,4.01-.94,1.49-.24,2.99-.42,4.51-.53,1.52-.11,2.9-.17,4.15-.17h.77c.13.03.25.05.36.05h.36c0-.06-.06-.39-.17-.98-.11-.59-.22-1.3-.31-2.11Z"/>
  <path d="M170.12,33.55c.25-.39.64-.64,1.12-.76-.84-.95-1.12-2.1-.6-2.91.44-.7,1.37-.96,2.39-.79-.58-.85-.73-1.8-.28-2.5.58-.91,1.97-1.08,3.33-.51-.29-.68-.29-1.37.05-1.91.26-.4.67-.66,1.17-.77-.05-1.55-.28-2.85-.72-3.89-.5-1.17-1.08-2.1-1.75-2.78-.67-.69-1.28-1.19-1.82-1.51-1.15-.7-2.17-1.4-3.05-2.09-.88-.69-1.32-1.56-1.32-2.62,0-.64.22-1.22.65-1.75.43-.53.92-.94,1.46-1.25.54-.3.96-.46,1.25-.46.54,0,.98.22,1.32.65.34.43.5,1.13.5,2.09,0,.26-.02.51-.07.77-.05.26-.1.51-.17.77l6.96-2.02c.03-.26.07-.5.12-.74.05-.24.09-.47.12-.7.03-.22.06-.45.07-.67.02-.22.02-.45.02-.67,0-1.41-.29-2.53-.86-3.36-.58-.83-1.34-1.43-2.3-1.8-.96-.37-2-.55-3.12-.55-1.57,0-3.22.3-4.97.89-1.74.59-3.38,1.42-4.92,2.5-1.54,1.07-2.78,2.32-3.74,3.74-.96,1.42-1.44,2.97-1.44,4.63,0,1.47.52,2.78,1.56,3.91,1.04,1.14,2.18,2.15,3.43,3.05,1.28.9,2.43,1.81,3.46,2.74,1.02.93,1.54,1.95,1.54,3.07,0,.86-.38,1.55-1.13,2.06-.75.51-1.54.77-2.38.77-.54,0-1.2-.16-1.97-.48-.77-.32-1.5-.75-2.18-1.3-.69-.54-1.21-1.12-1.56-1.73l-3.55,6.96c1.18,1.5,2.42,2.6,3.7,3.29,1.28.69,2.56,1.03,3.84,1.03,2.03,0,3.91-.38,5.64-1.11-.08-.47-.02-.92.22-1.29Z"/>
</svg>