<?xml version="1.0" encoding="UTF-8"?>
<svg id="LHLogo" xmlns="http://www.w3.org/2000/svg" viewBox="0 0 37.96 45.97">
  <path d="M37.16,26.99c0-10.04-8.14-18.18-18.18-18.18S.8,16.95.8,26.99c0,2.08,6.25,2.41,9.69,6.14,4.02,4.37,5.51,12.04,8.5,12.04,10.04,0,18.18-8.14,18.18-18.18Z" style="fill: #fff;"/>
  <g>
    <path d="M8.61,35.1c.18-1.26,1-1.42,1.2-2.7.2-1.28.41-2.52.62-3.71.22-1.19.42-2.27.61-3.23.21-1.04.42-2.1.62-3.17.21-1.07.42-2.15.65-3.24l4.2-.55-1.25,5.42c-.22.94-.45,1.96-.68,3.04-.23,1.08-.44,2.12-.64,3.13-.19,1.01-.34,1.9-.46,2.69.4-.03.83-.05,1.28-.06.46,0,.86-.01,1.21-.01.02.37.05.76.1,1.16s.1.76.16,1.06c.06.3.08.46.08.49h-.18c-.06,0-.12,0-.18-.02h-.38c-.62,0-1.32.03-2.08.08-.76.06-1.84.9-2.26.26-.61-.94-1.99-1.3-2.64-.65Z"/>
    <path d="M16.19,36.26c.21-1.1.41-2.2.61-3.28s.4-2.16.61-3.23c.22-1.33.44-2.58.64-3.74.2-1.17.4-2.33.6-3.48.2-1.15.4-2.36.59-3.62l3.89-.26c-.27,1.12-.54,2.29-.8,3.5-.26,1.22-.51,2.4-.73,3.55l2.38-.26c.11-.56.22-1.12.32-1.67.1-.55.2-1.1.28-1.64.08-.53.18-1.07.3-1.62.12-.55.25-1.11.4-1.67.58-.1,1.16-.17,1.75-.23.59-.06,1.29-.11,2.09-.16-.21.64-.42,1.39-.62,2.26-.21.86-.41,1.78-.6,2.74-.19.96-.38,1.92-.55,2.87-.18.95-.34,1.84-.48,2.65-.18,1.02-.34,2.05-.5,3.08-.16,1.03-.32,2.08-.48,3.16l-3.74.43c.11-.48.21-.96.3-1.43.09-.47.17-.93.25-1.38.16-.77.32-1.57.49-2.4.17-.83.3-1.54.4-2.14l-2.33.22c-.06.3-.12.63-.18.98-.06.35-.12.73-.2,1.13s-.16.79-.23,1.16c-.07.38-.14.75-.2,1.12-.08.43-.17.86-.26,1.3-.1.43-.18.86-.26,1.3l-3.7.77Z"/>
  </g>
  <path d="M18.98,11.02c8.81,0,15.98,7.17,15.98,15.98s-7.17,15.98-15.98,15.98c-.65,0-1.29-.04-1.93-.12.01-.16.02-.31.02-.47,0-1.8-.84-3.4-2.14-4.44,0-.08,0-.16,0-.24,0-2.4-1.49-4.45-3.6-5.29-.68-1.77-2.21-3.11-4.1-3.52-.88-1.49-2.41-2.55-4.21-2.77.46-8.41,7.44-15.11,15.96-15.11M18.98,8.02C8.5,8.02,0,16.51,0,26.99c0,1.05.11,2.07.27,3.07.49-.6,1.23-.98,2.06-.98,1.48,0,2.68,1.2,2.68,2.68,0,.07-.02.14-.02.21.32-.13.67-.21,1.03-.21,1.48,0,2.68,1.2,2.68,2.68,0,.23-.04.45-.09.66.2-.05.41-.08.63-.08,1.48,0,2.68,1.2,2.68,2.68,0,.82-.38,1.55-.96,2.04.14-.02.28-.04.42-.04,1.48,0,2.68,1.2,2.68,2.68,0,1.08-.65,2.01-1.57,2.43,2.03.74,4.2,1.16,6.49,1.16,10.48,0,18.98-8.5,18.98-18.98S29.46,8.02,18.98,8.02h0Z"/>
  <path d="M20.19,16.03c-.73,0-1.36-.53-1.48-1.27-.13-.82.43-1.59,1.25-1.71,1.33-.21,2.51-.92,3.3-2.01.8-1.09,1.12-2.43.91-3.76-.21-1.33-.92-2.51-2.01-3.3-1.09-.8-2.43-1.12-3.76-.91-1.33.21-2.51.92-3.3,2.01-.8,1.09-1.12,2.43-.91,3.76.13.82-.43,1.59-1.25,1.71-.81.13-1.58-.43-1.71-1.25-.33-2.13.18-4.25,1.45-5.99C13.94,1.57,15.81.43,17.93.1c2.12-.33,4.25.18,5.99,1.45,1.74,1.27,2.88,3.14,3.21,5.26.33,2.12-.18,4.25-1.45,5.99-1.27,1.74-3.14,2.88-5.26,3.21-.08.01-.16.02-.23.02Z"/>
</svg>